<?xml version="1.0" encoding="UTF-8"?> <svg xmlns="http://www.w3.org/2000/svg" xml:space="preserve" style="enable-background:new 0 0 2834.6 425.2" viewBox="0 0 2834.6 425.2"> <path d="M985.2 20.6C989.1 33.8 993 47 997 60.2c6.8 22.4 13.8 44.8 20.7 67.2.5 1.6 1.1 3.1 1.3 3.9 3.5-5.7 6.4-12.1 10.7-17.4 7.6-9.5 18.4-13.4 30.2-14.6 20.4-2.1 39 2.4 54.9 16.1 13.5 11.7 22 26.6 27.3 43.3 9.1 28.9 17.8 57.9 26.7 86.8 7.6 24.8 15.1 49.5 22.7 74.3.6 2 1.1 4 1.8 6.2-1.3.1-2.4.2-3.5.2-21 0-41.9-.1-62.9.1-3.1 0-4.2-1.1-5-3.8-14.7-48.1-29.4-96.1-44.2-144.1-.8-2.7-1.9-5.4-3.2-7.9-5.2-10-15.6-14.4-26.5-11.5-7.8 2.1-12.2 8.1-12.4 17.1-.1 10.2 2.9 19.8 5.8 29.5 12 39.3 24.1 78.6 36.1 117.9.2.7.4 1.5.7 2.6-1.1.1-2.1.2-3 .2-21.2 0-42.5 0-63.7.1-2.7 0-3.8-.8-4.5-3.3-13.5-44.5-27.2-89-40.8-133.4-13.2-43.2-26.5-86.5-39.7-129.7-4-13-8-26.1-12.1-39.1 23.6-.3 47.2-.3 70.8-.3zM411.4 102.1H425c14 0 28 .1 41.9-.1 2.3 0 3.4.7 4.4 2.7 4.7 9.6 9.6 19.1 14.5 28.7.4.8.9 1.5 1.4 2.4 1.7-5.1 2.9-10.2 5-14.9 6.6-14.7 18.8-20.9 34.2-21.9 24.7-1.7 44.8 8.4 62 25 22.2 21.4 36 47.8 45.6 76.7.5 1.6 1.2 3.3 2.3 4.7-1-7.5-2.2-15-2.9-22.5-1.1-13.1-1.6-26.3 2.4-39.1 7.3-23.6 23.7-37.6 47.4-42.2 44.4-8.8 82.8 3.1 113.5 36.7 20 21.9 32.8 47.7 36.6 77.5.7 5.2.6 10.5.9 16.1H715.6c2.3 5.2 4.2 10 6.4 14.6 5.3 11 11.6 21.3 21.3 29.1 4.4 3.6 9.4 5.8 15 6.7 14.2 2.1 22.8-5 23.2-19.4.1-4.7 0-9.5 0-14.8 5.1.6 10.3 1.1 15.5 1.8 14.4 1.7 28.7 3.5 43.1 5.1 2.2.2 2.9 1 3.1 3 1.9 18.2-.5 35.3-13.3 49.6-9.5 10.6-21.6 16.9-35.3 19.5-40.5 7.7-77.2 0-108.6-28-19.7-17.5-32.4-39.5-41.2-64-.6-1.5-1.1-3.1-2.5-4.4.7 4.8 1.5 9.6 2.1 14.5 2 15.7 2.8 31.4-1.2 46.9-2.7 10.4-7 20-15.2 27.3-10 8.9-22 11.3-35 10.4-18.8-1.2-34.5-8.9-48.6-21.5 10.2 33.1 20.3 66.2 30.6 99.6h-49.4c-5.8 0-11.7-.2-17.5.1-2.8.1-3.8-.9-4.5-3.4-10.2-33.5-20.4-67-30.7-100.5-14.8-48.3-29.6-96.5-44.4-144.8-5.5-17.9-10.9-35.7-16.4-53.6-.1-1.2-.3-2.1-.7-3.6zm161.1 152.5c-.2-25.4-15.9-68.4-32.2-87.8-4.1-4.9-8.4-9.5-14.6-11.7-9.5-3.4-17.8 1.2-18.8 10.8-.4 3.9-.2 8 .2 11.9 2.1 16.9 7 33 12.8 48.9 4.2 11.6 9.4 22.9 15 33.8 3.5 6.9 9.1 12.5 17.1 14.8 10.5 3 18-1.6 19.7-12.3.5-2.7.5-5.6.8-8.4zM756.6 189c.1-.8.2-1.3.1-1.8-2.1-10.1-5.7-19.5-12.1-27.7-4.9-6.3-10.9-11.3-19.1-13-11.9-2.5-21.1 2.6-22 13.7-.8 9.5.3 19.1.5 28.8h52.6zM1528.4 136.7c1.2-3.5 2.2-6.6 3.3-9.5 7-17.3 20.5-26.2 38.5-28.1 18.8-1.9 35.9 2.7 50.5 15.2 12.3 10.5 20.8 23.7 26.1 38.7 6.6 18.4 12.1 37.2 17.9 55.9 10 32.5 19.8 65.1 29.7 97.6 1.9 6.4 3.9 12.8 5.9 19.4h-70.2c-2.3-7.4-4.6-14.8-6.8-22.3-12.3-40.5-24.6-81.1-37.1-121.6-2.3-7.4-5.4-14.5-11.7-19.6-6-4.8-12.8-5.3-19.8-3.3-6 1.8-8.8 6.4-9.1 13.7-.4 10.6 2.8 20.3 5.9 30.2 12.3 40.2 24.7 80.3 37 120.5.2.7.3 1.5.5 2.4h-70c-2.9-9.6-5.9-19.3-8.8-29-11.7-38.3-23.3-76.7-35.1-115-2-6.7-4.9-13.1-10.1-18-6.1-5.8-13.4-7.1-21.2-4.8-7.1 2-11 8.6-9.3 17.3 2.4 12.2 5.4 24.4 9 36.3 11 36.8 22.5 73.4 33.7 110.1.3.9.5 1.7.8 2.9-1.1.1-2 .3-3 .3-21.2 0-42.5 0-63.7.1-2.7 0-3.6-.8-4.4-3.4-12.6-41.7-25.4-83.3-38.2-124.9-9.3-30.5-18.6-61.1-28-91.7-.4-1.2-.7-2.5-1.1-4 1.1-.1 2.1-.2 3.1-.2 17.3 0 34.7.1 52-.1 2.6 0 3.8.8 5 3.1 5.4 11.1 11 22.1 16.9 33.9 1.1-3.3 1.9-5.9 2.7-8.4 6.6-19.4 23.6-31.3 44.1-31.7 17.3-.4 32.9 3.7 45.9 15.3 6.1 5.5 10.9 12.3 16.3 18.5.9 1.3 1.6 2.6 2.8 4.2zM2094.7 326h-70.1c-3.1-10.2-6.3-20.6-9.5-30.9-12.1-39.5-24.2-79.1-36.5-118.5-2.9-9.3-8.1-16.7-18.9-18.2-13.9-1.9-22.3 5.2-22.3 19.1 0 3.8.2 7.8 1.3 11.5 4.5 16 9.1 31.9 13.9 47.8 8.7 28.7 17.6 57.4 26.4 86.1.3.9.3 1.8.6 2.9h-70c-22.7-74.4-45.5-148.9-68.4-223.8h4.8c16.7 0 33.4.1 50.1-.1 2.8 0 4.3.7 5.6 3.3 5.2 10.6 10.8 21.2 16.2 31.7.4.8.9 1.5 1.4 2.3 1.8-5.1 3.2-10.2 5.4-15 6.6-14.5 18.5-22.2 33.9-24.5 33.3-5 61.8 10.2 77.4 40.5 6.9 13.5 10.8 28.1 15.2 42.5 14.1 46.1 28.2 92.1 42.3 138.2.4 1.7.8 3.3 1.2 5.1zM212.2 102.1h28c12.9 0 25.9.1 38.8-.1 2.7 0 3.8.9 4.6 3.4 12.4 40.9 24.8 81.9 37.4 122.7 3.1 10 6.2 19.9 10.2 29.5 4.1 9.6 12.4 13.6 22.6 12.4 7.4-.9 11-4.5 11.9-11.9 1.1-8.8-.8-17.2-3.3-25.5l-39-128.7c-.1-.4-.1-.8-.1-1.4h70c22.7 74.4 45.5 148.9 68.3 223.6-1.4.1-2.4.2-3.4.2h-52c-2.1 0-3.5-.4-4.5-2.6-4.5-9.3-9.3-18.4-13.9-27.6-.6-1.2-1.3-2.4-2.3-4.3-1 3.8-1.7 7-2.7 10.1-4.5 14-14 22.8-28.2 25.9-20.8 4.5-40.7 2.2-58.6-9.9-13-8.8-21.9-21.4-27.4-35.8-6.7-17.7-12.3-35.8-17.9-53.9-10.9-35.2-21.5-70.5-32.2-105.7-2.1-6.8-4.2-13.3-6.3-20.4zM1389.4 326.2c-19.1 0-37.8.1-56.4-.1-1.2 0-2.8-1.5-3.4-2.8-5.4-10.3-10.6-20.6-16.1-31.5-1.2 4.2-2 7.9-3.2 11.4-4.8 13.6-14.5 21.8-28.4 24.7-20.6 4.2-40.4 1.9-58.2-10.2-12.7-8.7-21.5-21-26.9-35.2-6.8-18-12.5-36.5-18.2-55-12.5-40.1-24.6-80.3-36.9-120.4-.4-1.5-.8-3-1.3-4.9h4c20.7 0 41.4.1 62.1-.1 3.3 0 4.4 1.1 5.3 4 14.5 47.8 29.1 95.6 43.8 143.4 2.5 8.2 6.2 15.7 14.8 19.3 5.1 2.1 10.4 2.1 15.5.5 4.9-1.5 7.7-6.4 8-12.9.5-11.2-2.7-21.7-5.9-32.2-12-39.6-24.1-79.1-36.1-118.7-.3-1-.4-2-.7-3.2 1.2-.1 2.2-.2 3.3-.2 21.1 0 42.2.1 63.3-.1 2.7 0 3.7.9 4.5 3.4 22.1 72.4 44.2 144.9 66.3 217.3.3.9.5 1.9.8 3.5zM1905.3 325.2c-7.6 1.3-14.6 2.8-21.7 3.7-10.7 1.4-21.4 1-32-1.4-15.5-3.7-26.7-12.9-34-27-.8-1.5-1.6-2.9-2.5-4.7-4.1 10.3-10 18.7-18.9 24.8-8.6 5.9-18.2 8.4-28.5 8.9-16.9.8-33.3-1.5-47.9-10.9-19-12.2-29.2-30-32.5-52.1-1.6-11-1.5-21.9 2.8-32.4 5.6-13.5 16.1-22.1 28.6-28.7 16-8.5 33.6-12.4 51.1-16.5 3.5-.8 7-1.7 10.9-2.6-3.3-11.6-6-23.3-14.3-32.6-6.3-7-19.2-9.9-27.9-6.2-5.9 2.5-8.1 7.5-8 13.4.1 5.6 1 11.3 1.6 16.9.2 1.8.8 3.5 1.2 5.7-9.1-.8-17.8-1.5-26.5-2.3-12.2-1.1-24.4-2.3-36.6-3.4-1.8-.2-3.5-.1-3.8-2.7-1.6-12.2-2.4-24.4.3-36.6 4.1-18.8 16.3-30.5 34.3-35 32.6-8.1 64.9-6.9 95.8 7.5 22.3 10.4 36.9 28.5 45 51.3 7.5 21.1 13.6 42.7 20.2 64.1 4.8 15.4 9.4 30.8 14.1 46.2 2.1 6.7 6.4 8.8 16.4 8 4.2 14.4 8.3 28.9 12.8 44.6zM1794 229.4c-9.1 2.5-17.9 4.6-26.4 7.4-5.7 1.9-9.7 6.1-10.9 12.1-2.7 13.8 4.9 31.9 25.3 31.5 11.8-.2 18.4-7.1 18.8-19 .5-11-3.6-20.9-6.8-32zM77 256c20.3-2.8 39.6-5.5 58.1-8.1 3.3 6.9 5.7 13.7 9.5 19.7 7.4 11.7 21.7 15.5 34.8 10.9 13-4.6 11.1-19.8 3.9-25.3-7.5-5.7-16.3-8.1-25.1-10.8-20.1-6.2-40.4-11.7-59.1-21.6-15.5-8.2-29.3-18.4-36.4-35-8.9-20.7-10.1-41.7 3.5-61.1 10-14.3 24.9-21.6 41.7-24.2 35.2-5.4 67.3 1.7 94.8 25.4 13 11.2 21.2 25.3 25.7 42.4-19.2 2.8-38.2 5.5-57.3 8.2-1.7-3.9-3.2-7.9-5.2-11.6-6.3-11.9-16.1-17.7-29.7-16.7-6.2.4-11 3.6-12.4 8.3-1.7 5.4.1 12.6 5 15.5 6.2 3.6 12.8 6.7 19.5 9.1 17.9 6.2 36.2 11.3 53.8 18.1 15 5.8 28.4 14.7 38.9 27.3 15.4 18.5 19.5 48 9.2 67.7-7.9 15-20.6 24.6-36.3 29.6-32.6 10.3-64.5 8.5-94.5-9.1-17.5-10.2-28.7-26.1-36.8-44.2-1.9-4.6-3.5-9.4-5.6-14.5zM2227.6 168.3c-19.6 2.8-38.4 5.5-57.5 8.2-1.2-3-2.2-5.8-3.5-8.6-6.1-13.8-16.2-20.2-30.6-19.7-6.6.2-11.3 3.2-12.9 8-1.9 5.6-.3 12.6 5 15.8 6.1 3.7 12.8 6.6 19.5 9 17.9 6.3 36.2 11.3 53.8 18.2 18 7.1 34.2 17.6 44 35.1 11.6 20.4 14.1 41.8 2 62.9-8.3 14.5-21.8 23.1-37.5 27.5-31.8 8.9-62.7 7-91.6-10.2-19.7-11.8-31.4-30.1-39.5-51.1-.9-2.3-1.6-4.6-2.6-7.5 19.9-2.8 39.3-5.5 57.9-8.1 3.3 6.9 5.7 13.7 9.5 19.7 7.4 11.5 21.6 15.7 34.4 11.1 10.8-3.9 13.5-16.8 5.1-24.6-5.8-5.5-13.3-7.7-20.7-10-21.6-6.8-43.7-12.3-64-23-15.7-8.3-29.8-18.5-36.9-35.5-9.4-22.7-10.1-45.1 7-65 10.1-11.8 23.9-17.9 39.1-20.1 31.3-4.6 60.4.8 86.5 19.4 15.3 10.9 26 25.3 31.8 43.2.6 1.6 1 3.2 1.7 5.3zM809.1 102.2c1.3-.1 1.9-.1 2.6-.1h56c6.2 12.2 12.4 24.3 18.8 36.8 2-5.9 3.3-11.5 5.6-16.5 8.7-18.8 22.3-24.7 40.4-23.3 1.1.1 2.8 1.5 3.2 2.6 6.8 23.5 13.4 47.1 20.1 70.6.1.2 0 .5.1 1-5.2-.5-10.4-1.4-15.6-1.5-9.3-.3-18.2 1.3-24 9.7-3.9 5.7-4.5 12.2-4.2 18.9.7 14.8 6 28.4 10.2 42.3 8.2 27 16.5 53.9 24.8 80.9.2.7.3 1.5.4 2.4h-70c-22.8-74.4-45.5-148.8-68.4-223.8zM2391.5 136h-11.7c-4.5-14.6-15-22.4-29.5-25.1-24.8-4.5-46 11.2-49.3 36.1-1.8 13.8-.2 26.8 7.8 38.5 14.6 21.3 50 22.4 65.6 2 2-2.6 3.4-5.8 4.6-8.9.7-1.9 1.6-2.6 3.6-2.5 2.8.1 5.6 0 8.8 0-2 10.6-7.3 18.6-15.3 24.9-20.5 16.2-54.3 14-72.5-4.7-9.5-9.8-13.7-22-14.5-35.4-.9-14 1.4-27.4 9.8-39 12.8-17.8 30.9-23.3 51.8-20.7 17.7 2.2 31.3 10.7 38.6 27.6 1 2.2 1.4 4.6 2.2 7.2zM2719.7 172.7h-68.3c-1.4 11.3 6.4 23.4 17.7 27.9 14.3 5.7 29.1 1.6 38.2-10.8 3.2.9 6.6 1.8 10.2 2.8-2.8 7.1-7.8 12-14.3 14.7-17.7 7.3-34.9 7-50.3-5.5-8.8-7.2-12.4-17.3-13-28.4-.8-14.9 3.2-28.4 15.8-37.6 13.4-9.9 28.5-10.5 43.3-3.9 14.5 6.5 20.3 19.1 20.8 34.4 0 2-.1 3.9-.1 6.4zm-68.5-8.9h57c-.5-15.1-11.4-26.5-25.4-26.8-17.7-.4-30.4 10.2-31.6 26.8zM2483.3 172.7h-68.2c.2 14.3 7.9 25.3 20.6 28.8 12.4 3.4 27.5 1.5 35.4-11.8 3.3.9 6.7 1.9 10.3 2.9-1.6 5.1-5.1 8.4-8.8 11.3-14.3 11.1-40.3 10.3-54.5-.9-21.5-16.8-19.8-61.5 11-72.5 17.7-6.3 39.8-1.8 49.8 16.2 4.4 8 5.3 16.6 4.4 26zm-68-8.9h56.7c1.1-13.5-11.1-26.2-25.1-26.9-20.7-1.1-31.6 15.1-31.6 26.9zM2570.5 210.2h-8.2c-.9 0-1.7-.1-3.1-.3v-4.3c0-14.9-.5-29.7.1-44.6.9-22.5-19.9-27.8-34.3-22.1-9.5 3.7-13.9 11.1-13.9 21.2-.1 15.1 0 30.2 0 45.4v4.5h-10.6v-80.8h10v12.5c.8-.7 1.3-.9 1.5-1.2 9.2-16.4 41.2-16.3 52-2.6 4.6 5.8 6.3 12.4 6.4 19.4.3 17.5.1 34.9.1 52.9zM2628.9 201.3c.8 3.1 1.5 5.8 2.3 8.4-13.3 5.5-29.6-1.1-32.9-13.2-.4-1.6-.6-3.3-.6-5v-53.7H2584v-9h13.6V110h10.9v18.7h19.6v8.8h-19.6V185.6c0 12.9 5.2 17.5 18 16 .8 0 1.4-.2 2.4-.3zM2778.6 128.1v9.3c-1.1 0-2.2.1-3.3 0-7.6-.6-14.7.7-20.8 5.5-4.7 3.7-7.3 8.6-7.3 14.7v52.2h-11v-80.9h10.4v12.5c8.3-11.8 19.1-14.7 32-13.3z"></path> </svg> 